<svg width="317" height="241" viewBox="0 0 317 241" fill="none" xmlns="http://www.w3.org/2000/svg">
<path d="M139.567 190.782L139.276 193.471C139.151 194.163 139.068 194.87 138.999 195.605C138.597 200.15 138.098 204.819 137.6 209.337L137.35 211.706H0V202.339L70.2271 84.1116H6.22175V28.3513H141.881C136.643 37.2197 131.405 46.0882 126.168 54.9566C119.142 66.8459 112.13 78.7212 105.105 90.6105C104.911 90.9292 104.717 91.2618 104.523 91.5805L104.454 91.6775C104.232 92.0101 104.024 92.3288 103.83 92.6613L103.789 92.7168L91.7053 112.283H112.643C113.1 112.338 113.558 112.366 114.029 112.366C114.625 112.366 115.137 112.324 115.511 112.283C115.567 112.283 115.622 112.269 115.664 112.269H119.114C122.994 112.283 126.888 112.283 130.768 112.283C128.329 116.398 125.904 120.514 123.479 124.616C115.608 137.904 107.765 151.207 99.9085 164.496L84.084 190.782H139.567Z" fill="#3CAE06"/>
<path d="M316.617 155.558V211.706H175.512L181.526 201.522C181.858 201.037 182.288 200.371 182.69 199.554L187.359 191.669L191.031 185.447C191.031 185.447 191.087 185.35 191.115 185.309L191.877 184.02C192.098 183.688 192.334 183.327 192.556 182.953C192.556 182.925 192.583 182.912 192.597 182.884L192.764 182.593C193.817 180.778 194.884 178.962 195.951 177.161C199.138 171.701 202.339 166.311 205.526 160.907C207.84 156.999 210.154 153.091 212.468 149.17L212.51 149.101C212.662 148.879 212.87 148.602 213.092 148.242C213.286 147.951 213.48 147.618 213.701 147.23L213.757 147.119L224.676 128.842H201.41C198.085 128.828 194.745 128.828 191.406 128.828H186.029C191.447 119.641 196.865 110.468 202.283 101.294C206.371 94.3658 210.473 87.4373 214.56 80.5088L228.362 57.6033L230.025 54.8596L231.355 52.6425C231.452 52.4762 231.535 52.2961 231.591 52.1298L233.087 49.5108H177.313C178.075 42.4438 178.823 35.3629 179.544 28.3513H315.896V38.6608L246.653 155.558H316.617Z" fill="#3CAE06"/>
<path d="M171.078 60.5964C170.066 60.5964 169.083 60.5964 168.085 60.6241C167.849 60.6241 167.627 60.6103 167.433 60.5964C165.507 60.4163 165.092 59.2246 165.424 56.2453C167.212 40.0743 168.861 23.9032 170.551 7.73216C170.551 7.49659 170.593 7.26105 170.621 7.02548C170.648 6.70677 170.69 6.38806 170.717 6.06935C170.731 5.91692 170.759 5.75064 170.787 5.59822V5.48734C170.856 5.0162 170.939 4.55894 170.967 4.07395L171.438 0L169.484 3.4088L169.304 3.71365C169.207 3.90765 169.096 4.10166 168.985 4.29566C168.778 4.65594 168.556 5.01622 168.348 5.3765L168.306 5.44577C157.429 23.8201 146.565 42.2082 135.715 60.5964C128.509 72.7766 121.318 84.9569 114.112 97.1372L111.424 101.197H119.114C128.412 101.211 137.724 101.197 147.022 101.225C147.826 101.225 148.976 100.698 149.267 101.932C149.558 103.123 148.533 103.996 147.992 104.925C134.925 127.04 121.844 149.156 108.777 171.286C107.752 173.032 106.712 174.778 105.687 176.524C105.618 176.634 105.548 176.745 105.479 176.856L104.911 177.701L103.539 179.697H151.872L151.817 180.154L151.207 186.029L151.013 187.914L150.251 195.078C150.168 195.508 150.098 195.993 150.043 196.547C149.489 202.935 148.74 209.323 148.075 215.711C147.757 218.718 147.438 221.711 147.119 224.718L147.022 225.646L145.318 241L146.925 238.284C147.244 238.007 147.479 237.439 147.715 236.954L147.798 236.801C147.854 236.704 147.895 236.607 147.951 236.524C149.904 233.226 151.858 229.928 153.812 226.63C156.916 221.379 160.034 216.127 163.138 210.861L172.186 195.535C172.436 195.175 172.713 194.801 172.865 194.385L177.812 186.029L181.554 179.697V179.669L182.524 178.076C182.69 177.826 182.856 177.577 183.022 177.286C184.145 175.36 185.267 173.434 186.404 171.521C191.642 162.584 196.935 153.687 202.201 144.764L203.503 142.63L204.044 141.743L205.166 139.914H196.519C187.678 139.914 178.852 139.927 170.025 139.9C169.124 139.9 167.794 140.537 167.461 139.415C167.045 138.057 168.348 136.962 168.999 135.881C182.316 113.28 195.66 90.7353 208.977 68.1484C209.004 68.1069 209.032 68.0792 209.046 68.0376L213.91 60.5271L204.307 60.5964H171.078Z" fill="#FDC731"/>
</svg>
